<?xml version="1.0" encoding="UTF-8"?>
<svg fill="none" viewBox="0 0 1002 420" xmlns="http://www.w3.org/2000/svg">
<circle transform="rotate(-45.266 890.25 47.186)" cx="890.25" cy="47.186" r="32" fill="#008081"/>
<circle transform="rotate(-45.266 960.21 36.254)" cx="960.21" cy="36.254" r="32" fill="#4C516D"/>
<circle transform="rotate(-45.266 969.24 155.01)" cx="969.24" cy="155.01" r="32" fill="#4C516D"/>
<path d="m236.5 65.5h695.5c26.233 0 47.5 21.266 47.5 47.5v241.5h-743v-289z" stroke="#008081" stroke-width="5"/>
<path d="m515.5 0h-515.5v420h515.5v-111h-266.5c-50.258 0-91-40.742-91-91v-16c0-50.258 40.742-91 91-91h266.5v-111z" clip-rule="evenodd" fill="#008081" fill-rule="evenodd"/>
<circle cx="249.5" cy="210.5" r="97.5" fill="#fff" stroke="#4C516D" stroke-width="4"/>
<g filter="url(#a)">
<path d="m279.52 202.26c2.208 1.597 2.208 4.885 0 6.482l-60.424 43.699c-2.645 1.913-6.344 0.023-6.344-3.241v-87.398c0-3.265 3.699-5.154 6.344-3.241l60.424 43.699z" fill="#008081"/>
</g>
<path d="m392.2 177.87-7.02 25.128h-5.94l-4.716-17.892-4.932 17.892-5.904 0.036-6.768-25.164h5.4l4.428 19.512 5.112-19.512h5.616l4.824 19.404 4.464-19.404h5.436zm1.995 15.084c0-2.016 0.396-3.804 1.188-5.364 0.816-1.56 1.908-2.76 3.276-3.6 1.392-0.84 2.94-1.26 4.644-1.26 1.488 0 2.784 0.3 3.888 0.9 1.128 0.6 2.028 1.356 2.7 2.268v-2.844h5.076v19.944h-5.076v-2.916c-0.648 0.936-1.548 1.716-2.7 2.34-1.128 0.6-2.436 0.9-3.924 0.9-1.68 0-3.216-0.432-4.608-1.296-1.368-0.864-2.46-2.076-3.276-3.636-0.792-1.584-1.188-3.396-1.188-5.436zm15.696 0.072c0-1.224-0.24-2.268-0.72-3.132-0.48-0.888-1.128-1.56-1.944-2.016-0.816-0.48-1.692-0.72-2.628-0.72s-1.8 0.228-2.592 0.684-1.44 1.128-1.944 2.016c-0.48 0.864-0.72 1.896-0.72 3.096s0.24 2.256 0.72 3.168c0.504 0.888 1.152 1.572 1.944 2.052 0.816 0.48 1.68 0.72 2.592 0.72 0.936 0 1.812-0.228 2.628-0.684 0.816-0.48 1.464-1.152 1.944-2.016 0.48-0.888 0.72-1.944 0.72-3.168zm15.866-5.832v9.648c0 0.672 0.156 1.164 0.468 1.476 0.336 0.288 0.888 0.432 1.656 0.432h2.34v4.248h-3.168c-4.248 0-6.372-2.064-6.372-6.192v-9.612h-2.376v-4.14h2.376v-4.932h5.076v4.932h4.464v4.14h-4.464zm6.793 5.832c0-2.064 0.42-3.864 1.26-5.4 0.84-1.56 2.004-2.76 3.492-3.6 1.488-0.864 3.192-1.296 5.112-1.296 2.472 0 4.512 0.624 6.12 1.872 1.632 1.224 2.724 2.952 3.276 5.184h-5.436c-0.288-0.864-0.78-1.536-1.476-2.016-0.672-0.504-1.512-0.756-2.52-0.756-1.44 0-2.58 0.528-3.42 1.584-0.84 1.032-1.26 2.508-1.26 4.428 0 1.896 0.42 3.372 1.26 4.428 0.84 1.032 1.98 1.548 3.42 1.548 2.04 0 3.372-0.912 3.996-2.736h5.436c-0.552 2.16-1.644 3.876-3.276 5.148s-3.672 1.908-6.12 1.908c-1.92 0-3.624-0.42-5.112-1.26-1.488-0.864-2.652-2.064-3.492-3.6-0.84-1.56-1.26-3.372-1.26-5.436zm34.185-10.26c1.512 0 2.856 0.336 4.032 1.008 1.176 0.648 2.088 1.62 2.736 2.916 0.672 1.272 1.008 2.808 1.008 4.608v11.7h-5.04v-11.016c0-1.584-0.396-2.796-1.188-3.636-0.792-0.864-1.872-1.296-3.24-1.296-1.392 0-2.496 0.432-3.312 1.296-0.792 0.84-1.188 2.052-1.188 3.636v11.016h-5.04v-26.64h5.04v9.18c0.648-0.864 1.512-1.536 2.592-2.016 1.08-0.504 2.28-0.756 3.6-0.756zm43.718-4.896-9.216 25.128h-6.12l-9.216-25.128h5.4l6.912 19.98 6.876-19.98h5.364zm5.578 2.808c-0.888 0-1.632-0.276-2.232-0.828-0.576-0.576-0.864-1.284-0.864-2.124s0.288-1.536 0.864-2.088c0.6-0.576 1.344-0.864 2.232-0.864s1.62 0.288 2.196 0.864c0.6 0.552 0.9 1.248 0.9 2.088s-0.3 1.548-0.9 2.124c-0.576 0.552-1.308 0.828-2.196 0.828zm2.484 2.376v19.944h-5.04v-19.944h5.04zm3.684 9.9c0-2.016 0.396-3.804 1.188-5.364 0.816-1.56 1.92-2.76 3.312-3.6s2.94-1.26 4.644-1.26c1.296 0 2.532 0.288 3.708 0.864 1.176 0.552 2.112 1.296 2.808 2.232v-9.468h5.112v26.64h-5.112v-2.952c-0.624 0.984-1.5 1.776-2.628 2.376s-2.436 0.9-3.924 0.9c-1.68 0-3.216-0.432-4.608-1.296s-2.496-2.076-3.312-3.636c-0.792-1.584-1.188-3.396-1.188-5.436zm15.696 0.072c0-1.224-0.24-2.268-0.72-3.132-0.48-0.888-1.128-1.56-1.944-2.016-0.816-0.48-1.692-0.72-2.628-0.72s-1.8 0.228-2.592 0.684-1.44 1.128-1.944 2.016c-0.48 0.864-0.72 1.896-0.72 3.096s0.24 2.256 0.72 3.168c0.504 0.888 1.152 1.572 1.944 2.052 0.816 0.48 1.68 0.72 2.592 0.72 0.936 0 1.812-0.228 2.628-0.684 0.816-0.48 1.464-1.152 1.944-2.016 0.48-0.888 0.72-1.944 0.72-3.168zm28.538-0.432c0 0.72-0.048 1.368-0.144 1.944h-14.58c0.12 1.44 0.624 2.568 1.512 3.384s1.98 1.224 3.276 1.224c1.872 0 3.204-0.804 3.996-2.412h5.436c-0.576 1.92-1.68 3.504-3.312 4.752-1.632 1.224-3.636 1.836-6.012 1.836-1.92 0-3.648-0.42-5.184-1.26-1.512-0.864-2.7-2.076-3.564-3.636-0.84-1.56-1.26-3.36-1.26-5.4 0-2.064 0.42-3.876 1.26-5.436s2.016-2.76 3.528-3.6 3.252-1.26 5.22-1.26c1.896 0 3.588 0.408 5.076 1.224 1.512 0.816 2.676 1.98 3.492 3.492 0.84 1.488 1.26 3.204 1.26 5.148zm-5.22-1.44c-0.024-1.296-0.492-2.328-1.404-3.096-0.912-0.792-2.028-1.188-3.348-1.188-1.248 0-2.304 0.384-3.168 1.152-0.84 0.744-1.356 1.788-1.548 3.132h9.468zm17.755 12.168c-1.92 0-3.648-0.42-5.184-1.26-1.536-0.864-2.748-2.076-3.636-3.636-0.864-1.56-1.296-3.36-1.296-5.4s0.444-3.84 1.332-5.4c0.912-1.56 2.148-2.76 3.708-3.6 1.56-0.864 3.3-1.296 5.22-1.296s3.66 0.432 5.22 1.296c1.56 0.84 2.784 2.04 3.672 3.6 0.912 1.56 1.368 3.36 1.368 5.4s-0.468 3.84-1.404 5.4c-0.912 1.56-2.16 2.772-3.744 3.636-1.56 0.84-3.312 1.26-5.256 1.26zm0-4.392c0.912 0 1.764-0.216 2.556-0.648 0.816-0.456 1.464-1.128 1.944-2.016s0.72-1.968 0.72-3.24c0-1.896-0.504-3.348-1.512-4.356-0.984-1.032-2.196-1.548-3.636-1.548s-2.652 0.516-3.636 1.548c-0.96 1.008-1.44 2.46-1.44 4.356s0.468 3.36 1.404 4.392c0.96 1.008 2.16 1.512 3.6 1.512zm28.547-11.736v9.648c0 0.672 0.156 1.164 0.468 1.476 0.336 0.288 0.888 0.432 1.656 0.432h2.34v4.248h-3.168c-4.248 0-6.372-2.064-6.372-6.192v-9.612h-2.376v-4.14h2.376v-4.932h5.076v4.932h4.464v4.14h-4.464zm16.945 16.128c-1.92 0-3.648-0.42-5.184-1.26-1.536-0.864-2.748-2.076-3.636-3.636-0.864-1.56-1.296-3.36-1.296-5.4s0.444-3.84 1.332-5.4c0.912-1.56 2.148-2.76 3.708-3.6 1.56-0.864 3.3-1.296 5.22-1.296s3.66 0.432 5.22 1.296c1.56 0.84 2.784 2.04 3.672 3.6 0.912 1.56 1.368 3.36 1.368 5.4s-0.468 3.84-1.404 5.4c-0.912 1.56-2.16 2.772-3.744 3.636-1.56 0.84-3.312 1.26-5.256 1.26zm0-4.392c0.912 0 1.764-0.216 2.556-0.648 0.816-0.456 1.464-1.128 1.944-2.016s0.72-1.968 0.72-3.24c0-1.896-0.504-3.348-1.512-4.356-0.984-1.032-2.196-1.548-3.636-1.548s-2.652 0.516-3.636 1.548c-0.96 1.008-1.44 2.46-1.44 4.356s0.468 3.36 1.404 4.392c0.96 1.008 2.16 1.512 3.6 1.512zm27.719 0.072h8.28v3.996h-13.32v-25.128h5.04v21.132zm30.024-6.408c0 0.72-0.048 1.368-0.144 1.944h-14.58c0.12 1.44 0.624 2.568 1.512 3.384s1.98 1.224 3.276 1.224c1.872 0 3.204-0.804 3.996-2.412h5.436c-0.576 1.92-1.68 3.504-3.312 4.752-1.632 1.224-3.636 1.836-6.012 1.836-1.92 0-3.648-0.42-5.184-1.26-1.512-0.864-2.7-2.076-3.564-3.636-0.84-1.56-1.26-3.36-1.26-5.4 0-2.064 0.42-3.876 1.26-5.436s2.016-2.76 3.528-3.6 3.252-1.26 5.22-1.26c1.896 0 3.588 0.408 5.076 1.224 1.512 0.816 2.676 1.98 3.492 3.492 0.84 1.488 1.26 3.204 1.26 5.148zm-5.22-1.44c-0.024-1.296-0.492-2.328-1.404-3.096-0.912-0.792-2.028-1.188-3.348-1.188-1.248 0-2.304 0.384-3.168 1.152-0.84 0.744-1.356 1.788-1.548 3.132h9.468zm7.602 1.8c0-2.016 0.396-3.804 1.188-5.364 0.816-1.56 1.908-2.76 3.276-3.6 1.392-0.84 2.94-1.26 4.644-1.26 1.488 0 2.784 0.3 3.888 0.9 1.128 0.6 2.028 1.356 2.7 2.268v-2.844h5.076v19.944h-5.076v-2.916c-0.648 0.936-1.548 1.716-2.7 2.34-1.128 0.6-2.436 0.9-3.924 0.9-1.68 0-3.216-0.432-4.608-1.296-1.368-0.864-2.46-2.076-3.276-3.636-0.792-1.584-1.188-3.396-1.188-5.436zm15.696 0.072c0-1.224-0.24-2.268-0.72-3.132-0.48-0.888-1.128-1.56-1.944-2.016-0.816-0.48-1.692-0.72-2.628-0.72s-1.8 0.228-2.592 0.684-1.44 1.128-1.944 2.016c-0.48 0.864-0.72 1.896-0.72 3.096s0.24 2.256 0.72 3.168c0.504 0.888 1.152 1.572 1.944 2.052 0.816 0.48 1.68 0.72 2.592 0.72 0.936 0 1.812-0.228 2.628-0.684 0.816-0.48 1.464-1.152 1.944-2.016 0.48-0.888 0.72-1.944 0.72-3.168zm15.039-6.876c0.648-1.056 1.488-1.884 2.52-2.484 1.056-0.6 2.256-0.9 3.6-0.9v5.292h-1.332c-1.584 0-2.784 0.372-3.6 1.116-0.792 0.744-1.188 2.04-1.188 3.888v9.936h-5.04v-19.944h5.04v3.096zm20.567-3.384c2.376 0 4.296 0.756 5.76 2.268 1.464 1.488 2.196 3.576 2.196 6.264v11.7h-5.04v-11.016c0-1.584-0.396-2.796-1.188-3.636-0.792-0.864-1.872-1.296-3.24-1.296-1.392 0-2.496 0.432-3.312 1.296-0.792 0.84-1.188 2.052-1.188 3.636v11.016h-5.04v-19.944h5.04v2.484c0.672-0.864 1.524-1.536 2.556-2.016 1.056-0.504 2.208-0.756 3.456-0.756zm42.171-4.896v25.128h-5.04v-10.692h-10.764v10.692h-5.04v-25.128h5.04v10.332h10.764v-10.332h5.04zm13.816 25.452c-1.92 0-3.648-0.42-5.184-1.26-1.536-0.864-2.748-2.076-3.636-3.636-0.864-1.56-1.296-3.36-1.296-5.4s0.444-3.84 1.332-5.4c0.912-1.56 2.148-2.76 3.708-3.6 1.56-0.864 3.3-1.296 5.22-1.296s3.66 0.432 5.22 1.296c1.56 0.84 2.784 2.04 3.672 3.6 0.912 1.56 1.368 3.36 1.368 5.4s-0.468 3.84-1.404 5.4c-0.912 1.56-2.16 2.772-3.744 3.636-1.56 0.84-3.312 1.26-5.256 1.26zm0-4.392c0.912 0 1.764-0.216 2.556-0.648 0.816-0.456 1.464-1.128 1.944-2.016s0.72-1.968 0.72-3.24c0-1.896-0.504-3.348-1.512-4.356-0.984-1.032-2.196-1.548-3.636-1.548s-2.652 0.516-3.636 1.548c-0.96 1.008-1.44 2.46-1.44 4.356s0.468 3.36 1.404 4.392c0.96 1.008 2.16 1.512 3.6 1.512zm41.749-15.876-5.832 19.944h-5.436l-3.636-13.932-3.636 13.932h-5.472l-5.868-19.944h5.112l3.528 15.192 3.816-15.192h5.328l3.744 15.156 3.528-15.156h4.824zm17.173 4.14v9.648c0 0.672 0.156 1.164 0.468 1.476 0.336 0.288 0.888 0.432 1.656 0.432h2.34v4.248h-3.168c-4.248 0-6.372-2.064-6.372-6.192v-9.612h-2.376v-4.14h2.376v-4.932h5.076v4.932h4.464v4.14h-4.464zm16.945 16.128c-1.92 0-3.648-0.42-5.184-1.26-1.536-0.864-2.748-2.076-3.636-3.636-0.864-1.56-1.296-3.36-1.296-5.4s0.444-3.84 1.332-5.4c0.912-1.56 2.148-2.76 3.708-3.6 1.56-0.864 3.3-1.296 5.22-1.296s3.66 0.432 5.22 1.296c1.56 0.84 2.784 2.04 3.672 3.6 0.912 1.56 1.368 3.36 1.368 5.4s-0.468 3.84-1.404 5.4c-0.912 1.56-2.16 2.772-3.744 3.636-1.56 0.84-3.312 1.26-5.256 1.26zm0-4.392c0.912 0 1.764-0.216 2.556-0.648 0.816-0.456 1.464-1.128 1.944-2.016s0.72-1.968 0.72-3.24c0-1.896-0.504-3.348-1.512-4.356-0.984-1.032-2.196-1.548-3.636-1.548s-2.652 0.516-3.636 1.548c-0.96 1.008-1.44 2.46-1.44 4.356s0.468 3.36 1.404 4.392c0.96 1.008 2.16 1.512 3.6 1.512zm27.648-21.06v15.552c0 1.704 0.444 3.012 1.332 3.924 0.888 0.888 2.136 1.332 3.744 1.332 1.632 0 2.892-0.444 3.78-1.332 0.888-0.912 1.332-2.22 1.332-3.924v-15.552h5.076v15.516c0 2.136-0.468 3.948-1.404 5.436-0.912 1.464-2.148 2.568-3.708 3.312-1.536 0.744-3.252 1.116-5.148 1.116-1.872 0-3.576-0.372-5.112-1.116-1.512-0.744-2.712-1.848-3.6-3.312-0.888-1.488-1.332-3.3-1.332-5.436v-15.516h5.04zm27.765 25.452c-1.632 0-3.096-0.288-4.392-0.864-1.296-0.6-2.328-1.404-3.096-2.412-0.744-1.008-1.152-2.124-1.224-3.348h5.076c0.096 0.768 0.468 1.404 1.116 1.908 0.672 0.504 1.5 0.756 2.484 0.756 0.96 0 1.704-0.192 2.232-0.576 0.552-0.384 0.828-0.876 0.828-1.476 0-0.648-0.336-1.128-1.008-1.44-0.648-0.336-1.692-0.696-3.132-1.08-1.488-0.36-2.712-0.732-3.672-1.116-0.936-0.384-1.752-0.972-2.448-1.764-0.672-0.792-1.008-1.86-1.008-3.204 0-1.104 0.312-2.112 0.936-3.024 0.648-0.912 1.56-1.632 2.736-2.16 1.2-0.528 2.604-0.792 4.212-0.792 2.376 0 4.272 0.6 5.688 1.8 1.416 1.176 2.196 2.772 2.34 4.788h-4.824c-0.072-0.792-0.408-1.416-1.008-1.872-0.576-0.48-1.356-0.72-2.34-0.72-0.912 0-1.62 0.168-2.124 0.504-0.48 0.336-0.72 0.804-0.72 1.404 0 0.672 0.336 1.188 1.008 1.548 0.672 0.336 1.716 0.684 3.132 1.044 1.44 0.36 2.628 0.732 3.564 1.116s1.74 0.984 2.412 1.8c0.696 0.792 1.056 1.848 1.08 3.168 0 1.152-0.324 2.184-0.972 3.096-0.624 0.912-1.536 1.632-2.736 2.16-1.176 0.504-2.556 0.756-4.14 0.756zm30.525-10.728c0 0.72-0.048 1.368-0.144 1.944h-14.58c0.12 1.44 0.624 2.568 1.512 3.384s1.98 1.224 3.276 1.224c1.872 0 3.204-0.804 3.996-2.412h5.436c-0.576 1.92-1.68 3.504-3.312 4.752-1.632 1.224-3.636 1.836-6.012 1.836-1.92 0-3.648-0.42-5.184-1.26-1.512-0.864-2.7-2.076-3.564-3.636-0.84-1.56-1.26-3.36-1.26-5.4 0-2.064 0.42-3.876 1.26-5.436s2.016-2.76 3.528-3.6 3.252-1.26 5.22-1.26c1.896 0 3.588 0.408 5.076 1.224 1.512 0.816 2.676 1.98 3.492 3.492 0.84 1.488 1.26 3.204 1.26 5.148zm-5.22-1.44c-0.024-1.296-0.492-2.328-1.404-3.096-0.912-0.792-2.028-1.188-3.348-1.188-1.248 0-2.304 0.384-3.168 1.152-0.84 0.744-1.356 1.788-1.548 3.132h9.468zm-529.72 40.716v25.128h-5.04v-10.692h-10.764v10.692h-5.04v-25.128h5.04v10.332h10.764v-10.332h5.04zm3.665 15.084c0-2.016 0.396-3.804 1.188-5.364 0.816-1.56 1.908-2.76 3.276-3.6 1.392-0.84 2.94-1.26 4.644-1.26 1.488 0 2.784 0.3 3.888 0.9 1.128 0.6 2.028 1.356 2.7 2.268v-2.844h5.076v19.944h-5.076v-2.916c-0.648 0.936-1.548 1.716-2.7 2.34-1.128 0.6-2.436 0.9-3.924 0.9-1.68 0-3.216-0.432-4.608-1.296-1.368-0.864-2.46-2.076-3.276-3.636-0.792-1.584-1.188-3.396-1.188-5.436zm15.696 0.072c0-1.224-0.24-2.268-0.72-3.132-0.48-0.888-1.128-1.56-1.944-2.016-0.816-0.48-1.692-0.72-2.628-0.72s-1.8 0.228-2.592 0.684-1.44 1.128-1.944 2.016c-0.48 0.864-0.72 1.896-0.72 3.096s0.24 2.256 0.72 3.168c0.504 0.888 1.152 1.572 1.944 2.052 0.816 0.48 1.68 0.72 2.592 0.72 0.936 0 1.812-0.228 2.628-0.684 0.816-0.48 1.464-1.152 1.944-2.016 0.48-0.888 0.72-1.944 0.72-3.168zm21.05-10.26c2.376 0 4.296 0.756 5.76 2.268 1.464 1.488 2.196 3.576 2.196 6.264v11.7h-5.04v-11.016c0-1.584-0.396-2.796-1.188-3.636-0.792-0.864-1.872-1.296-3.24-1.296-1.392 0-2.496 0.432-3.312 1.296-0.792 0.84-1.188 2.052-1.188 3.636v11.016h-5.04v-19.944h5.04v2.484c0.672-0.864 1.524-1.536 2.556-2.016 1.056-0.504 2.208-0.756 3.456-0.756zm11.453 10.188c0-2.016 0.396-3.804 1.188-5.364 0.816-1.56 1.92-2.76 3.312-3.6s2.94-1.26 4.644-1.26c1.296 0 2.532 0.288 3.708 0.864 1.176 0.552 2.112 1.296 2.808 2.232v-9.468h5.112v26.64h-5.112v-2.952c-0.624 0.984-1.5 1.776-2.628 2.376s-2.436 0.9-3.924 0.9c-1.68 0-3.216-0.432-4.608-1.296s-2.496-2.076-3.312-3.636c-0.792-1.584-1.188-3.396-1.188-5.436zm15.696 0.072c0-1.224-0.24-2.268-0.72-3.132-0.48-0.888-1.128-1.56-1.944-2.016-0.816-0.48-1.692-0.72-2.628-0.72s-1.8 0.228-2.592 0.684-1.44 1.128-1.944 2.016c-0.48 0.864-0.72 1.896-0.72 3.096s0.24 2.256 0.72 3.168c0.504 0.888 1.152 1.572 1.944 2.052 0.816 0.48 1.68 0.72 2.592 0.72 0.936 0 1.812-0.228 2.628-0.684 0.816-0.48 1.464-1.152 1.944-2.016 0.48-0.888 0.72-1.944 0.72-3.168zm29.078-9.972-12.348 29.376h-5.364l4.32-9.936-7.992-19.44h5.652l5.148 13.932 5.22-13.932h5.364zm27.485-0.288c2.448 0 4.416 0.756 5.904 2.268 1.512 1.488 2.268 3.576 2.268 6.264v11.7h-5.04v-11.016c0-1.56-0.396-2.748-1.188-3.564-0.792-0.84-1.872-1.26-3.24-1.26s-2.46 0.42-3.276 1.26c-0.792 0.816-1.188 2.004-1.188 3.564v11.016h-5.04v-11.016c0-1.56-0.396-2.748-1.188-3.564-0.792-0.84-1.872-1.26-3.24-1.26-1.392 0-2.496 0.42-3.312 1.26-0.792 0.816-1.188 2.004-1.188 3.564v11.016h-5.04v-19.944h5.04v2.412c0.648-0.84 1.476-1.5 2.484-1.98 1.032-0.48 2.16-0.72 3.384-0.72 1.56 0 2.952 0.336 4.176 1.008 1.224 0.648 2.172 1.584 2.844 2.808 0.648-1.152 1.584-2.076 2.808-2.772 1.248-0.696 2.592-1.044 4.032-1.044zm11.659 10.188c0-2.016 0.396-3.804 1.188-5.364 0.816-1.56 1.908-2.76 3.276-3.6 1.392-0.84 2.94-1.26 4.644-1.26 1.488 0 2.784 0.3 3.888 0.9 1.128 0.6 2.028 1.356 2.7 2.268v-2.844h5.076v19.944h-5.076v-2.916c-0.648 0.936-1.548 1.716-2.7 2.34-1.128 0.6-2.436 0.9-3.924 0.9-1.68 0-3.216-0.432-4.608-1.296-1.368-0.864-2.46-2.076-3.276-3.636-0.792-1.584-1.188-3.396-1.188-5.436zm15.696 0.072c0-1.224-0.24-2.268-0.72-3.132-0.48-0.888-1.128-1.56-1.944-2.016-0.816-0.48-1.692-0.72-2.628-0.72s-1.8 0.228-2.592 0.684-1.44 1.128-1.944 2.016c-0.48 0.864-0.72 1.896-0.72 3.096s0.24 2.256 0.72 3.168c0.504 0.888 1.152 1.572 1.944 2.052 0.816 0.48 1.68 0.72 2.592 0.72 0.936 0 1.812-0.228 2.628-0.684 0.816-0.48 1.464-1.152 1.944-2.016 0.48-0.888 0.72-1.944 0.72-3.168zm21.05-10.26c2.376 0 4.296 0.756 5.76 2.268 1.464 1.488 2.196 3.576 2.196 6.264v11.7h-5.04v-11.016c0-1.584-0.396-2.796-1.188-3.636-0.792-0.864-1.872-1.296-3.24-1.296-1.392 0-2.496 0.432-3.312 1.296-0.792 0.84-1.188 2.052-1.188 3.636v11.016h-5.04v-19.944h5.04v2.484c0.672-0.864 1.524-1.536 2.556-2.016 1.056-0.504 2.208-0.756 3.456-0.756zm23.801 0c2.376 0 4.296 0.756 5.76 2.268 1.464 1.488 2.196 3.576 2.196 6.264v11.7h-5.04v-11.016c0-1.584-0.396-2.796-1.188-3.636-0.792-0.864-1.872-1.296-3.24-1.296-1.392 0-2.496 0.432-3.312 1.296-0.792 0.84-1.188 2.052-1.188 3.636v11.016h-5.04v-19.944h5.04v2.484c0.672-0.864 1.524-1.536 2.556-2.016 1.056-0.504 2.208-0.756 3.456-0.756zm31.829 0.288-12.348 29.376h-5.364l4.32-9.936-7.992-19.44h5.652l5.148 13.932 5.22-13.932h5.364zm13.851-2.376c-0.888 0-1.632-0.276-2.232-0.828-0.576-0.576-0.864-1.284-0.864-2.124s0.288-1.536 0.864-2.088c0.6-0.576 1.344-0.864 2.232-0.864s1.62 0.288 2.196 0.864c0.6 0.552 0.9 1.248 0.9 2.088s-0.3 1.548-0.9 2.124c-0.576 0.552-1.308 0.828-2.196 0.828zm2.484 2.376v19.944h-5.04v-19.944h5.04zm16.031-0.288c2.376 0 4.296 0.756 5.76 2.268 1.464 1.488 2.196 3.576 2.196 6.264v11.7h-5.04v-11.016c0-1.584-0.396-2.796-1.188-3.636-0.792-0.864-1.872-1.296-3.24-1.296-1.392 0-2.496 0.432-3.312 1.296-0.792 0.84-1.188 2.052-1.188 3.636v11.016h-5.04v-19.944h5.04v2.484c0.672-0.864 1.524-1.536 2.556-2.016 1.056-0.504 2.208-0.756 3.456-0.756zm36.843-4.896v4.068h-10.476v6.444h8.028v3.996h-8.028v10.62h-5.04v-25.128h15.516zm22.114 14.724c0 0.72-0.048 1.368-0.144 1.944h-14.58c0.12 1.44 0.624 2.568 1.512 3.384s1.98 1.224 3.276 1.224c1.872 0 3.204-0.804 3.996-2.412h5.436c-0.576 1.92-1.68 3.504-3.312 4.752-1.632 1.224-3.636 1.836-6.012 1.836-1.92 0-3.648-0.42-5.184-1.26-1.512-0.864-2.7-2.076-3.564-3.636-0.84-1.56-1.26-3.36-1.26-5.4 0-2.064 0.42-3.876 1.26-5.436s2.016-2.76 3.528-3.6 3.252-1.26 5.22-1.26c1.896 0 3.588 0.408 5.076 1.224 1.512 0.816 2.676 1.98 3.492 3.492 0.84 1.488 1.26 3.204 1.26 5.148zm-5.22-1.44c-0.024-1.296-0.492-2.328-1.404-3.096-0.912-0.792-2.028-1.188-3.348-1.188-1.248 0-2.304 0.384-3.168 1.152-0.84 0.744-1.356 1.788-1.548 3.132h9.468zm36.547-8.1-5.832 19.944h-5.436l-3.636-13.932-3.636 13.932h-5.472l-5.868-19.944h5.112l3.528 15.192 3.816-15.192h5.328l3.744 15.156 3.528-15.156h4.824zm38.701-5.184v25.128h-5.04v-16.344l-6.732 16.344h-3.816l-6.768-16.344v16.344h-5.04v-25.128h5.724l7.992 18.684 7.992-18.684h5.688zm7.539 2.808c-0.888 0-1.632-0.276-2.232-0.828-0.576-0.576-0.864-1.284-0.864-2.124s0.288-1.536 0.864-2.088c0.6-0.576 1.344-0.864 2.232-0.864s1.62 0.288 2.196 0.864c0.6 0.552 0.9 1.248 0.9 2.088s-0.3 1.548-0.9 2.124c-0.576 0.552-1.308 0.828-2.196 0.828zm2.484 2.376v19.944h-5.04v-19.944h5.04zm16.032-0.288c2.376 0 4.296 0.756 5.76 2.268 1.464 1.488 2.196 3.576 2.196 6.264v11.7h-5.04v-11.016c0-1.584-0.396-2.796-1.188-3.636-0.792-0.864-1.872-1.296-3.24-1.296-1.392 0-2.496 0.432-3.312 1.296-0.792 0.84-1.188 2.052-1.188 3.636v11.016h-5.04v-19.944h5.04v2.484c0.672-0.864 1.524-1.536 2.556-2.016 1.056-0.504 2.208-0.756 3.456-0.756zm31.576 0.288v19.944h-5.076v-2.52c-0.648 0.864-1.5 1.548-2.556 2.052-1.032 0.48-2.16 0.72-3.384 0.72-1.56 0-2.94-0.324-4.14-0.972-1.2-0.672-2.148-1.644-2.844-2.916-0.672-1.296-1.008-2.832-1.008-4.608v-11.7h5.04v10.98c0 1.584 0.396 2.808 1.188 3.672 0.792 0.84 1.872 1.26 3.24 1.26 1.392 0 2.484-0.42 3.276-1.26 0.792-0.864 1.188-2.088 1.188-3.672v-10.98h5.076zm10.841 4.14v9.648c0 0.672 0.156 1.164 0.468 1.476 0.336 0.288 0.888 0.432 1.656 0.432h2.34v4.248h-3.168c-4.248 0-6.372-2.064-6.372-6.192v-9.612h-2.376v-4.14h2.376v-4.932h5.076v4.932h4.464v4.14h-4.464zm26.629 5.4c0 0.72-0.048 1.368-0.144 1.944h-14.58c0.12 1.44 0.624 2.568 1.512 3.384s1.98 1.224 3.276 1.224c1.872 0 3.204-0.804 3.996-2.412h5.436c-0.576 1.92-1.68 3.504-3.312 4.752-1.632 1.224-3.636 1.836-6.012 1.836-1.92 0-3.648-0.42-5.184-1.26-1.512-0.864-2.7-2.076-3.564-3.636-0.84-1.56-1.26-3.36-1.26-5.4 0-2.064 0.42-3.876 1.26-5.436s2.016-2.76 3.528-3.6 3.252-1.26 5.22-1.26c1.896 0 3.588 0.408 5.076 1.224 1.512 0.816 2.676 1.98 3.492 3.492 0.84 1.488 1.26 3.204 1.26 5.148zm-5.22-1.44c-0.024-1.296-0.492-2.328-1.404-3.096-0.912-0.792-2.028-1.188-3.348-1.188-1.248 0-2.304 0.384-3.168 1.152-0.84 0.744-1.356 1.788-1.548 3.132h9.468zm16.531 12.168c-1.632 0-3.096-0.288-4.392-0.864-1.296-0.6-2.328-1.404-3.096-2.412-0.744-1.008-1.152-2.124-1.224-3.348h5.076c0.096 0.768 0.468 1.404 1.116 1.908 0.672 0.504 1.5 0.756 2.484 0.756 0.96 0 1.704-0.192 2.232-0.576 0.552-0.384 0.828-0.876 0.828-1.476 0-0.648-0.336-1.128-1.008-1.44-0.648-0.336-1.692-0.696-3.132-1.08-1.488-0.36-2.712-0.732-3.672-1.116-0.936-0.384-1.752-0.972-2.448-1.764-0.672-0.792-1.008-1.86-1.008-3.204 0-1.104 0.312-2.112 0.936-3.024 0.648-0.912 1.56-1.632 2.736-2.16 1.2-0.528 2.604-0.792 4.212-0.792 2.376 0 4.272 0.6 5.688 1.8 1.416 1.176 2.196 2.772 2.34 4.788h-4.824c-0.072-0.792-0.408-1.416-1.008-1.872-0.576-0.48-1.356-0.72-2.34-0.72-0.912 0-1.62 0.168-2.124 0.504-0.48 0.336-0.72 0.804-0.72 1.404 0 0.672 0.336 1.188 1.008 1.548 0.672 0.336 1.716 0.684 3.132 1.044 1.44 0.36 2.628 0.732 3.564 1.116s1.74 0.984 2.412 1.8c0.696 0.792 1.056 1.848 1.08 3.168 0 1.152-0.324 2.184-0.972 3.096-0.624 0.912-1.536 1.632-2.736 2.16-1.176 0.504-2.556 0.756-4.14 0.756z" fill="#000"/>
<defs>
<filter id="a" x="208.75" y="157.79" width="76.424" height="103.41" color-interpolation-filters="sRGB" filterUnits="userSpaceOnUse">
<feFlood flood-opacity="0" result="BackgroundImageFix"/>
<feColorMatrix in="SourceAlpha" result="hardAlpha" values="0 0 0 0 0 0 0 0 0 0 0 0 0 0 0 0 0 0 127 0"/>
<feOffset dy="4"/>
<feGaussianBlur stdDeviation="2"/>
<feComposite in2="hardAlpha" operator="out"/>
<feColorMatrix values="0 0 0 0 0 0 0 0 0 0 0 0 0 0 0 0 0 0 0.25 0"/>
<feBlend in2="BackgroundImageFix" result="effect1_dropShadow_0_1"/>
<feBlend in="SourceGraphic" in2="effect1_dropShadow_0_1" result="shape"/>
</filter>
</defs>
</svg>
